<?xml version="1.0" encoding="UTF-8"?>
<svg version="1.1" xmlns="http://www.w3.org/2000/svg" width="159" height="148" style="filter: invert(45%) sepia(66%) saturate(1000%) hue-rotate(180deg) brightness(95%) contrast(110%);">
<path d="M0 0 C3.92282495 3.92282495 3.05411201 10.76128725 3.0625 16.0625 C3.041875 17.361875 3.02125 18.66125 3 20 C1.02 20 -0.96 20 -3 20 C-3.25652344 19.41992188 -3.51304688 18.83984375 -3.77734375 18.2421875 C-7.74507183 10.1464191 -13.24872204 6.21250177 -21.625 3.125 C-27.46260552 1.39909924 -33.09185918 1.59329981 -39 3 C-39.33 3.66 -39.66 4.32 -40 5 C-40.639375 5.0825 -41.27875 5.165 -41.9375 5.25 C-44.28621485 5.83364774 -44.28621485 5.83364774 -45.25 8.5625 C-46.47237894 14.16507012 -47.08354627 19.90544529 -44 25 C-37.24081836 32.24198033 -27.68987894 35.84084803 -18.86376953 40.00878906 C-4.88040508 46.62993317 6.37477712 53.50497933 13.4375 67.9375 C15.0246669 76.57874202 14.52694604 84.33532946 10 92 C2.75591532 101.41469489 2.75591532 101.41469489 -2 103 C-1.58507099 100.30296147 -1.16015221 97.63082856 -0.48828125 94.984375 C1.34912312 87.73900741 2.3223622 80.48622762 -0.375 73.375 C-1.78146068 70.90691844 -1.78146068 70.90691844 -4 70 C-4.33 69.01 -4.66 68.02 -5 67 C-7.27071218 65.22470522 -7.27071218 65.22470522 -10.0625 63.5625 C-10.98160156 62.98628906 -11.90070313 62.41007812 -12.84765625 61.81640625 C-18.01333883 58.8398977 -23.35463867 56.28683721 -28.76171875 53.78125 C-29.57060547 53.40613281 -30.37949219 53.03101563 -31.21289062 52.64453125 C-32.87228989 51.87704272 -34.5337839 51.1140682 -36.19726562 50.35546875 C-40.62034886 48.29443237 -44.24974185 46.17276014 -48 43 C-48.99 42.67 -49.98 42.34 -51 42 C-51 41.34 -51 40.68 -51 40 C-51.66 40 -52.32 40 -53 40 C-58.97761084 32.6905077 -60.47786131 25.58278334 -59.80859375 16.36328125 C-58.67360712 8.56174157 -54.87500441 3.05275173 -48.75 -1.8125 C-34.06739527 -11.23994252 -14.4589359 -8.14958206 0 0 Z " fill="#222222" transform="translate(125,25)"/>
<path d="M0 0 C11.88 0 23.76 0 36 0 C36 1.98 36 3.96 36 6 C35.16855469 6.23783203 35.16855469 6.23783203 34.3203125 6.48046875 C33.59585938 6.71378906 32.87140625 6.94710938 32.125 7.1875 C31.40570313 7.40792969 30.68640625 7.62835937 29.9453125 7.85546875 C27.1768685 9.48429223 26.94285439 10.93725053 26 14 C25.76855265 16.7442284 25.62881622 19.39844295 25.5859375 22.14453125 C25.56657135 22.91431808 25.5472052 23.68410492 25.5272522 24.47721863 C25.46774377 26.92220171 25.42118705 29.36723262 25.375 31.8125 C25.33679369 33.47593134 25.29774043 35.13934347 25.2578125 36.80273438 C25.16206617 40.86833241 25.07792991 44.93402301 25 49 C26.36765503 48.94501343 26.36765503 48.94501343 27.76293945 48.88891602 C31.19815935 48.76846223 34.63108714 48.68132703 38.06762695 48.61547852 C39.54487865 48.5806157 41.02189506 48.53310365 42.49829102 48.47192383 C51.5568119 48.1063884 58.18728466 48.53755317 65.69213867 54.28881836 C68.05273543 56.03910109 70.23942921 57.02818359 73 58 C73 58.99 73 59.98 73 61 C57.16 61 41.32 61 25 61 C25.103125 66.011875 25.20625 71.02375 25.3125 76.1875 C25.33739502 77.76039795 25.36229004 79.3332959 25.38793945 80.95385742 C25.42105225 82.20013916 25.45416504 83.4464209 25.48828125 84.73046875 C25.51446533 86.00301514 25.54064941 87.27556152 25.56762695 88.58666992 C26.0282774 92.22323336 26.72328408 94.14796906 29 97 C32.57996259 98.36900354 32.57996259 98.36900354 36 99 C36 100.98 36 102.96 36 105 C26.99906727 105.6380408 18.02575467 106.10310611 9 106.125 C7.8255835 106.13176758 7.8255835 106.13176758 6.62744141 106.13867188 C1.12394681 106.12394681 1.12394681 106.12394681 0 105 C-0.04080783 103.00041636 -0.04254356 100.99954746 0 99 C2.01822917 98.64192708 4.03645833 98.28385417 6.0546875 97.92578125 C8.18619139 97.14843767 8.18619139 97.14843767 9.10441589 94.91917419 C10.19554738 91.36260942 10.28765403 88.04968832 10.2746582 84.36743164 C10.27976913 83.61556076 10.28488007 82.86368988 10.29014587 82.08903503 C10.30400435 79.61266031 10.303088 77.13656506 10.30078125 74.66015625 C10.30467015 72.93289589 10.30900522 71.20563647 10.31376648 69.4783783 C10.32122056 65.86128639 10.32094324 62.24429211 10.31567383 58.62719727 C10.30987925 53.99915567 10.32681375 49.37151429 10.3500185 44.74353886 C10.36477221 41.17725806 10.36562533 37.61107329 10.36250877 34.04476738 C10.36302113 32.33878219 10.36824275 30.63279151 10.37832069 28.92683601 C10.39070021 26.53828267 10.38388491 24.15050445 10.37231445 21.76196289 C10.37995819 21.06203217 10.38760193 20.36210144 10.39547729 19.64096069 C10.34653949 15.05489498 9.52295208 11.84356527 7 8 C3.4306283 6.55032098 3.4306283 6.55032098 0 6 C0 4.02 0 2.04 0 0 Z " fill="#141414" transform="translate(15,23)"/>
<path d="M0 0 C3.54991306 0.59900842 6.54811143 1.55211126 9.8125 3.0625 C10.99779297 3.60583984 10.99779297 3.60583984 12.20703125 4.16015625 C12.79871094 4.43730469 13.39039062 4.71445313 14 5 C14.01401855 6.19544434 14.01401855 6.19544434 14.02832031 7.41503906 C14.08201498 11.02732175 14.16566608 14.63830821 14.25 18.25 C14.26417969 19.50425781 14.27835938 20.75851563 14.29296875 22.05078125 C14.32519531 23.25605469 14.35742188 24.46132812 14.390625 25.703125 C14.41157227 26.81333008 14.43251953 27.92353516 14.45410156 29.06738281 C15.11624212 32.6244635 16.17206466 33.80883546 19 36 C21.64184541 36.79681318 21.64184541 36.79681318 24 37 C25.125 41.75 25.125 41.75 24 44 C12.45 44 0.9 44 -11 44 C-12 39 -12 39 -11 37 C-9.88625 36.773125 -8.7725 36.54625 -7.625 36.3125 C-3.84589204 35.3645121 -3.84589204 35.3645121 -2.31640625 32.3203125 C-0.0332014 26.38291297 -0.42327154 19.83216897 -0.3125 13.5625 C-0.27833984 12.25861328 -0.24417969 10.95472656 -0.20898438 9.61132812 C-0.12683847 6.40763802 -0.0575759 3.20421021 0 0 Z " fill="#151515" transform="translate(92,85)"/>
<path d="M0 0 C0.75 1.6875 0.75 1.6875 1 4 C-0.625 6.75 -0.625 6.75 -3 9 C-5.75 9.3125 -5.75 9.3125 -8 9 C-8 9.99 -8 10.98 -8 12 C2.56 12 13.12 12 24 12 C24 11.01 24 10.02 24 9 C23.071875 8.731875 22.14375 8.46375 21.1875 8.1875 C16.62711864 6.4885344 16.62711864 6.4885344 15 4 C15.3125 1.8125 15.3125 1.8125 16 0 C16.350625 0.78375 16.70125 1.5675 17.0625 2.375 C19.61665844 5.83547272 21.88222494 6.14536744 26 7 C26 8.98 26 10.96 26 13 C16.99906727 13.6380408 8.02575467 14.10310611 -1 14.125 C-1.78294434 14.12951172 -2.56588867 14.13402344 -3.37255859 14.13867188 C-8.87605319 14.12394681 -8.87605319 14.12394681 -10 13 C-10.04080783 11.00041636 -10.04254356 8.99954746 -10 7 C-8.72125 6.773125 -7.4425 6.54625 -6.125 6.3125 C-3.93067868 5.83899916 -3.93067868 5.83899916 -2 5 C-0.40311361 2.51686936 -0.40311361 2.51686936 0 0 Z " fill="#9D9D9D" transform="translate(25,115)"/>
<path d="M0 0 C0.721875 0.639375 1.44375 1.27875 2.1875 1.9375 C4.98191184 3.98673535 6.61663274 4.61332946 10 5 C11.125 9.75 11.125 9.75 10 12 C-1.55 12 -13.1 12 -25 12 C-26 7 -26 7 -25 5 C-22.67843403 4.59270772 -20.3431213 4.25561323 -18 4 C-18 4.66 -18 5.32 -18 6 C-19.98 6 -21.96 6 -24 6 C-24 7.32 -24 8.64 -24 10 C-13.11 10 -2.22 10 9 10 C9 8.68 9 7.36 9 6 C6.69 6 4.38 6 2 6 C2 5.34 2 4.68 2 4 C1.34 4 0.68 4 0 4 C0 2.68 0 1.36 0 0 Z " fill="#B3B3B3" transform="translate(106,117)"/>
<path d="M0 0 C3.54243452 1.36591169 6.92627929 2.90931484 10.3125 4.625 C11.19550781 5.07101563 12.07851562 5.51703125 12.98828125 5.9765625 C13.65214844 6.31429687 14.31601563 6.65203125 15 7 C15 7.99 15 8.98 15 10 C-0.84 10 -16.68 10 -33 10 C-33 20.23 -33 30.46 -33 41 C-33.33 41 -33.66 41 -34 41 C-34 30.44 -34 19.88 -34 9 C-11.725 8.505 -11.725 8.505 11 8 C6.05 5.03 6.05 5.03 1 2 C0.505 1.01 0.505 1.01 0 0 Z " fill="#A1A1A1" transform="translate(73,74)"/>
<path d="M0 0 C3.875 1.875 3.875 1.875 5 3 C5.09506052 5.55589888 5.12556761 8.08467972 5.11352539 10.64086914 C5.11367142 11.44080795 5.11381744 12.24074677 5.1139679 13.06492615 C5.11326855 15.72169665 5.10547518 18.37839793 5.09765625 21.03515625 C5.09579215 22.87218691 5.09436821 24.70921806 5.09336853 26.54624939 C5.08954275 31.39109662 5.07971196 36.23591408 5.06866455 41.08074951 C5.05845172 46.02062578 5.05387119 50.96050685 5.04882812 55.90039062 C5.03808974 65.60027353 5.0210126 75.30013429 5 85 C4.67 85 4.34 85 4 85 C3.85445456 77.58835579 3.71248179 70.17664872 3.57275391 62.76489258 C3.52503377 60.25446092 3.47655724 57.74404349 3.42724609 55.23364258 C3.35565134 51.58157961 3.28684185 47.92947358 3.21875 44.27734375 C3.19506348 43.07548431 3.17137695 41.87362488 3.14697266 40.63534546 C3.04295416 34.85552442 2.99111105 29.08555186 3.07421875 23.30517578 C3.08682739 22.26003311 3.09943604 21.21489044 3.11242676 20.13807678 C3.14066987 18.19873247 3.18160912 16.25951091 3.23815918 14.32078552 C3.31744526 8.73439854 2.58549952 4.97403684 0 0 Z " fill="#A1A1A1" transform="translate(22,30)"/>
<path d="M0 0 C0.495 0.99 0.495 0.99 1 2 C0.21625 1.731875 -0.5675 1.46375 -1.375 1.1875 C-5.07532971 -0.02467697 -8.79647187 -1.13199182 -12.53515625 -2.21875 C-15 -3 -15 -3 -17.3984375 -4.07421875 C-26.49673431 -7.31190095 -37.08440252 -4.74326076 -46 -2 C-45 -4 -45 -4 -43.27734375 -4.8515625 C-28.66716994 -9.68096887 -13.23720544 -7.59913645 0 0 Z " fill="#AEAEAE" transform="translate(125,25)"/>
<path d="M0 0 C0.33 0 0.66 0 1 0 C1 5.94 1 11.88 1 18 C2.65 17.01 4.3 16.02 6 15 C4.40907948 19.13639336 1.39525082 22.23213248 -2 25 C-2.66 25 -3.32 25 -4 25 C-3.46797022 21.54180645 -2.80959354 18.15150121 -2 14.75 C-0.88571386 9.86876147 -0.39545679 4.98483685 0 0 Z " fill="#9A9A9A" transform="translate(127,103)"/>
<path d="M0 0 C3.37462715 0.54723683 5.08235 1.0549 8 3 C5.03 2.505 5.03 2.505 2 2 C1.97494385 2.82725586 1.9498877 3.65451172 1.92407227 4.50683594 C1.80803651 8.25471192 1.685344 12.00234125 1.5625 15.75 C1.50352539 17.70292969 1.50352539 17.70292969 1.44335938 19.6953125 C1.40146484 20.94570312 1.35957031 22.19609375 1.31640625 23.484375 C1.27974854 24.63647461 1.24309082 25.78857422 1.20532227 26.97558594 C1.03547826 29.47740224 0.72031525 31.61091168 0 34 C-0.66 34 -1.32 34 -2 34 C-1.84152588 33.14841309 -1.68305176 32.29682617 -1.51977539 31.41943359 C-1.00187484 28.01233398 -0.79415096 24.73212975 -0.68359375 21.2890625 C-0.64169922 20.04511719 -0.59980469 18.80117187 -0.55664062 17.51953125 C-0.51732422 16.23433594 -0.47800781 14.94914062 -0.4375 13.625 C-0.39431641 12.31660156 -0.35113281 11.00820312 -0.30664062 9.66015625 C-0.20087571 6.44020203 -0.09878421 3.22017469 0 0 Z " fill="#767676" transform="translate(92,85)"/>
<path d="M0 0 C0.66 0.33 1.32 0.66 2 1 C-1.61328125 5.6875 -1.61328125 5.6875 -3 7 C-3.99 7 -4.98 7 -6 7 C-4.60667426 3.63279613 -3.0210714 2.0140476 0 0 Z " fill="#797979" transform="translate(77,23)"/>
</svg>
